# xmcd
# Copyright (C) 1995-1998 Ti Kan
#
# Track frame offsets:
#       150
#       12868
#       26875
#       37406
#       55088
#       69265
#       81739
#       117134
#       132624
#       180007
#       219663
#       235041
#       253877
#       280691
#       290933
#
# Disc length: 4211 seconds
#
# Revision: 14
# Processed by: cddbd v1.5.1PL0 Copyright (c) Steve Scherf et al.
# Submitted via: CD-Transfer v1.0
#
DISCID=e410710f
DTITLE=Machado Alicia - Euro Express 581
DYEAR=04
DGENRE=
TTITLE0=Call On Me
TTITLE1=My My My
TTITLE2=Slas Dot Dash
TTITLE3=Move...now
TTITLE4=Better Than Life
TTITLE5=Waterford Weather
TTITLE6=Which Way You're Going (Wally Lopez Remix)
TTITLE7=Baby (Vinyl)
TTITLE8=Lola's Theme (Calderone Vocal Mix)
TTITLE9=Think It Over (Soulful Club Mix)
TTITLE10=Opa Opa (English Vers. Bass Bumpers Edit)
TTITLE11=Submit (Original Mix)
TTITLE12=Party Crushers (Headman Voc Remix)
TTITLE13=I'm The Main Man (Radio Edit)
TTITLE14=Como Decirte Que No (D'menece Club Mix)
EXTD=
EXTT0=
EXTT1=
EXTT2=
EXTT3=
EXTT4=
EXTT5=
EXTT6=
EXTT7=
EXTT8=
EXTT9=
EXTT10=
EXTT11=
EXTT12=
EXTT13=
EXTT14=
PLAYORDER=
